<svg version="1.1" id="Layer_1" xmlns="http://www.w3.org/2000/svg" xmlns:xlink="http://www.w3.org/1999/xlink" x="0px" y="0px"
	 width="100%" viewBox="0 0 1200 1200" enable-background="new 0 0 1200 1200" xml:space="preserve">
<path fill="#FFFEFE" opacity="1.000000" stroke="none" 
	d="
M672.000000,1201.000000 
	C448.000000,1201.000000 224.500000,1201.000000 1.000000,1201.000000 
	C1.000000,801.000000 1.000000,401.000000 1.000000,1.000000 
	C401.000000,1.000000 801.000000,1.000000 1201.000000,1.000000 
	C1201.000000,401.000000 1201.000000,801.000000 1201.000000,1201.000000 
	C1024.833374,1201.000000 848.666687,1201.000000 672.000000,1201.000000 
M246.893753,583.078735 
	C246.893753,583.078735 246.801453,583.138733 246.924011,583.672974 
	C247.209961,583.877808 247.495911,584.082642 247.805267,584.170532 
	C247.805267,584.170532 247.699387,584.225586 247.850616,584.750732 
	C248.147858,584.936401 248.445114,585.122009 248.797516,585.127563 
	C248.797516,585.127563 248.676956,585.272217 248.795670,585.793091 
	C249.079742,585.982605 249.363815,586.172119 249.651062,586.160583 
	C249.651062,586.160583 249.575195,586.346802 249.698151,586.906433 
	C250.108292,587.288025 250.518433,587.669556 251.061691,588.539124 
	C251.332108,588.723267 251.602524,588.907410 252.049515,589.583923 
	C252.342651,589.753906 252.635773,589.923889 252.904129,590.115967 
	C252.904129,590.115967 252.903168,590.151123 253.117844,590.776367 
	C257.759186,595.187317 262.400543,599.598328 267.171204,604.132202 
	C237.888168,631.990295 227.025116,667.132751 224.954346,706.805664 
	C224.628754,724.533752 224.303146,742.261780 223.637772,760.682129 
	C223.511841,762.814209 223.385910,764.946289 223.027283,767.830200 
	C223.010941,768.875671 222.994583,769.921204 222.626251,771.674133 
	C221.074188,781.951599 219.522141,792.229065 217.949280,802.644287 
	C227.657654,801.180298 237.116165,799.745850 246.577530,798.330566 
	C251.744904,797.557678 256.917145,796.817261 262.843445,796.036804 
	C263.596161,795.977783 264.348877,795.918762 265.797791,796.124146 
	C280.400360,796.073303 295.017029,796.414429 309.602631,795.890625 
	C340.521210,794.780090 370.018707,788.392822 396.239410,770.833496 
	C396.977875,770.338867 398.037842,770.324463 399.046631,770.792480 
	C407.315826,787.587524 418.996582,801.529480 434.410339,813.030029 
	C434.579071,813.073853 434.747772,813.117676 434.946167,813.069641 
	C434.946167,813.069641 434.855530,813.102783 435.180298,813.695374 
	C443.120300,818.626831 451.060333,823.558289 459.558441,828.964050 
	C477.689728,838.808105 497.511047,844.166199 517.643433,850.976868 
	C518.469849,851.037781 519.405640,850.865234 520.106506,851.193909 
	C535.410889,858.370300 550.690247,865.600220 565.970642,872.827698 
	C567.403870,873.505615 568.812561,874.235474 570.589294,875.118469 
	C573.534790,846.289307 581.003479,819.150085 589.984497,792.297363 
	C593.491760,781.810608 595.186768,770.717773 597.948059,759.192993 
	C598.149048,757.476624 598.350037,755.760254 598.818115,753.365601 
	C598.804138,752.882751 598.790161,752.399841 599.002258,751.113525 
	C601.110474,732.117188 600.557007,713.328613 594.545288,694.241394 
	C590.229492,681.386230 584.566772,669.262878 575.017944,657.895325 
	C578.291260,671.970642 578.989441,684.967529 575.961914,697.953247 
	C573.707275,707.623901 571.102661,717.212952 568.759949,726.892883 
	C568.759949,726.892883 568.745239,726.774536 568.212280,727.215759 
	C567.689575,728.751282 567.166931,730.286804 566.788696,731.841553 
	C566.788696,731.841553 566.682800,731.741455 566.257446,732.017944 
	C566.066223,732.659607 565.875000,733.301331 565.160217,734.497314 
	C554.920532,754.469116 546.494324,775.158630 541.159485,797.244385 
	C533.527344,792.209534 526.720459,787.332458 519.534241,783.099121 
	C513.625305,779.618164 507.266296,776.901306 500.908722,773.186584 
	C492.963074,769.257202 485.017426,765.327820 476.615570,760.958374 
	C461.123138,752.393311 447.455444,741.596558 435.974548,727.222107 
	C425.360168,713.272095 419.980774,697.406006 418.857513,679.367371 
	C418.783264,678.917847 418.709015,678.468262 418.816010,677.348572 
	C418.754456,676.893982 418.692932,676.439453 418.827362,675.143188 
	C418.798553,673.417175 418.769775,671.691101 418.950226,669.151306 
	C419.287598,664.775818 419.624939,660.400269 420.197754,655.343506 
	C420.663727,654.123535 421.292603,652.939575 421.570831,651.678162 
	C424.726532,637.370728 430.094971,623.884583 436.990997,611.023438 
	C439.929932,605.542358 444.498474,600.777527 446.620728,595.054688 
	C449.462646,587.391357 450.648376,579.113770 452.829163,570.274414 
	C455.478333,546.518250 452.053925,523.728577 441.929199,501.259979 
	C437.080902,491.752014 432.232635,482.244080 427.352539,472.731140 
	C427.352539,472.731140 427.347351,472.762878 427.291962,472.106720 
	C426.550171,471.045288 425.808411,469.983856 424.937775,468.244843 
	C414.889862,453.201019 403.054260,439.970428 387.053986,430.986450 
	C387.053986,430.986450 387.054504,430.918823 386.693756,430.352203 
	C384.884918,429.438202 383.076080,428.524231 381.180145,427.695923 
	C381.180145,427.695923 381.301971,427.705597 381.068787,427.231537 
	C380.737976,427.136719 380.407196,427.041870 380.040039,426.953369 
	C380.040039,426.953369 380.022491,426.920929 379.626953,426.420990 
	C378.837982,426.138733 378.049011,425.856445 377.068604,425.581696 
	C377.068604,425.581696 377.257477,425.613129 376.906433,425.132935 
	C376.341125,424.976135 375.775848,424.819366 375.065216,424.688263 
	C375.065216,424.688263 375.209930,424.717133 374.825012,424.149323 
	C370.924774,422.727295 367.024506,421.305267 362.688354,419.432465 
	C362.081024,419.331848 361.473694,419.231232 360.521088,418.920197 
	C360.521088,418.920197 360.120789,418.977448 359.530975,418.520142 
	C352.374664,417.253662 345.218384,415.987183 337.384644,414.305237 
	C334.104797,414.024048 330.797729,413.327759 327.550232,413.540588 
	C318.305878,414.146423 309.085785,415.122772 299.148499,415.935547 
	C288.321198,417.983124 277.237152,419.159973 266.720459,422.260925 
	C245.346237,428.563446 224.008728,434.806274 201.879349,437.875519 
	C195.725327,438.729034 189.554779,439.463318 182.995895,440.302979 
	C186.582306,447.691406 190.172897,454.245544 193.009537,461.111206 
	C198.579010,474.591278 203.728973,488.244690 209.061783,502.535309 
	C209.335678,502.894379 209.609573,503.253479 209.694260,503.656464 
	C209.694260,503.656464 209.694107,503.850708 209.724213,504.715729 
	C212.518402,513.487305 215.312592,522.258850 218.114548,531.769409 
	C219.681305,535.241211 221.248062,538.713013 222.834244,542.081726 
	C222.834244,542.081726 222.734970,542.115540 222.717361,542.884094 
	C228.508255,557.094421 235.824677,570.404663 246.011780,582.618896 
	C246.298431,582.808105 246.585098,582.997314 246.893753,583.078735 
M428.960938,909.830933 
	C431.456360,909.914673 433.962372,909.879211 436.445526,910.100647 
	C458.188812,912.039856 479.903625,914.377625 501.676147,915.885254 
	C519.218323,917.100037 536.830933,917.934692 554.408630,917.874390 
	C597.824341,917.725464 641.263062,919.275696 684.651245,916.089111 
	C704.488342,914.632202 724.393311,914.122864 744.254333,912.959167 
	C758.865784,912.103088 773.572144,911.601501 787.680420,907.130005 
	C790.606262,906.202698 793.159607,904.100037 795.884644,902.539124 
	C792.967651,900.704041 790.262512,897.956726 787.090393,897.219849 
	C780.063721,895.587646 772.824219,894.769226 765.632507,893.970642 
	C749.697266,892.201111 733.767517,890.213684 717.780396,889.124268 
	C700.402100,887.939941 682.965271,887.532166 665.546753,887.043945 
	C647.428711,886.536133 629.302246,886.090637 611.179077,886.075562 
	C594.889709,886.062012 578.600037,886.682007 562.310059,886.999023 
	C544.354126,887.348450 526.397644,887.671021 508.441406,888.005920 
	C507.941620,888.015198 507.440643,888.012573 506.942383,888.046753 
	C487.781189,889.363098 468.579803,890.272766 449.474274,892.155029 
	C437.844116,893.300842 426.331268,895.793945 414.844849,898.079590 
	C413.053192,898.436157 411.684601,900.919128 410.120361,902.418762 
	C411.590820,903.847290 412.830231,906.010315 414.577209,906.560059 
	C418.969482,907.942078 423.590973,908.595398 428.960938,909.830933 
M597.380859,590.868774 
	C596.985901,586.928528 596.590881,582.988342 596.175964,578.849487 
	C592.703613,578.849487 589.636719,578.849487 586.345337,578.849487 
	C585.127380,585.312561 583.953918,591.539185 582.780457,597.765808 
	C580.699585,592.624146 579.617676,587.485779 579.006592,582.291931 
	C578.651855,579.277283 577.384155,578.256042 574.503113,578.523560 
	C572.562683,578.703735 570.591980,578.557922 568.309570,578.557922 
	C567.087891,590.740417 565.919067,602.395569 564.722534,614.327026 
	C567.608704,614.327026 569.695801,614.327026 572.218079,614.327026 
	C572.822632,606.216431 573.410767,598.326233 573.998901,590.435974 
	C574.287048,590.405212 574.575256,590.374451 574.863464,590.343628 
	C576.351685,598.270874 577.839844,606.198120 579.305664,614.006104 
	C583.534180,615.565002 585.324646,614.213867 585.918823,610.050598 
	C586.780579,604.012634 588.136658,598.045227 589.281921,592.047668 
	C589.698486,592.036133 590.115051,592.024597 590.531616,592.013062 
	C591.047058,599.447571 591.562500,606.882080 592.078186,614.320923 
	C594.903809,614.320923 597.000244,614.320923 599.590637,614.320923 
	C598.867554,606.595337 598.174011,599.186035 597.380859,590.868774 
M884.541992,587.879211 
	C883.658203,596.592896 882.774414,605.306641 881.871277,614.211304 
	C884.764709,614.211304 886.976257,614.211304 889.381775,614.211304 
	C889.995300,606.098816 890.581665,598.345459 891.168091,590.592102 
	C893.373230,597.385193 894.455811,604.248901 895.975586,611.014404 
	C896.285828,612.395325 898.098022,614.046814 899.486145,614.351746 
	C900.331970,614.537476 902.388123,612.550598 902.693420,611.255127 
	C903.758850,606.733215 904.270752,602.082764 905.058350,597.492249 
	C905.250000,596.374939 905.690857,595.300354 906.017090,594.206116 
	C906.570923,594.223938 907.124695,594.241699 907.678528,594.259521 
	C908.246643,600.892456 908.814819,607.525391 909.390198,614.242310 
	C911.973572,614.242310 914.207214,614.242310 916.829590,614.242310 
	C915.635559,602.169189 914.480530,590.490540 913.325623,578.813049 
	C911.850891,578.691406 911.015991,578.702271 910.214722,578.543457 
	C905.079468,577.525452 902.703918,579.495605 902.223206,584.832275 
	C901.826294,589.237671 900.435181,593.553528 899.484558,597.909058 
	C897.711243,592.508606 896.922241,587.183167 895.934204,581.894958 
	C895.721313,580.755920 895.045288,579.179260 894.147949,578.779358 
	C889.196899,576.572388 885.414978,579.036438 884.947876,584.515503 
	C884.877258,585.344849 884.757568,586.169922 884.541992,587.879211 
M703.043640,583.330505 
	C700.728394,577.679871 699.554321,577.227051 692.723267,579.351685 
	C692.723267,590.917114 692.723267,602.482544 692.723267,614.240601 
	C695.293030,614.240601 697.517578,614.240601 700.207764,614.240601 
	C700.207764,607.559143 700.207764,601.229553 700.207764,594.899902 
	C703.122986,599.581482 705.128723,604.438660 707.079712,609.317627 
	C709.504333,615.380981 710.355530,615.771240 717.230103,613.712585 
	C717.230103,602.164001 717.230103,590.594238 717.230103,578.838928 
	C714.704163,578.838928 712.493164,578.838928 709.889648,578.838928 
	C709.889648,585.255981 709.889648,591.297424 709.889648,597.338867 
	C709.558167,597.423279 709.226685,597.507690 708.895203,597.592102 
	C707.029053,593.078491 705.162842,588.564941 703.043640,583.330505 
M799.376099,603.453979 
	C799.376099,607.040161 799.376099,610.626343 799.376099,614.160400 
	C802.430603,614.160400 804.642944,614.160400 807.351196,614.160400 
	C807.351196,607.432190 807.351196,601.131775 807.351196,594.831421 
	C810.159790,599.625488 812.159119,604.516541 814.137878,609.415894 
	C816.514648,615.300598 817.718811,615.812683 824.265869,613.663818 
	C824.265869,602.097839 824.265869,590.531860 824.265869,578.864624 
	C821.700134,578.864624 819.489319,578.864624 816.879578,578.864624 
	C816.879578,585.301636 816.879578,591.343567 816.879578,597.582764 
	C816.212952,597.226013 815.802124,597.149292 815.712891,596.937195 
	C813.973145,592.801941 812.256165,588.656799 810.564270,584.501587 
	C807.726074,577.531311 807.604553,577.462036 799.376526,579.259155 
	C799.376526,586.906799 799.376526,594.686523 799.376099,603.453979 
M526.044678,583.679443 
	C522.467773,591.155823 522.802368,598.881409 524.932495,606.580017 
	C526.527161,612.343262 530.499390,615.067505 536.363220,615.075378 
	C542.197144,615.083191 546.857788,612.410645 547.804016,606.693909 
	C548.843018,600.416626 548.861328,593.823608 548.256775,587.469788 
	C547.812988,582.805115 544.502197,579.186707 539.593628,578.201965 
	C534.382385,577.156555 529.598816,578.088074 526.044678,583.679443 
M660.799561,608.925415 
	C663.160461,609.520630 667.310486,609.675781 667.583252,610.784607 
	C669.033936,616.682556 672.718445,614.215759 676.428894,614.152710 
	C673.594177,602.859314 670.962830,592.052917 668.067810,581.317566 
	C667.762329,580.184875 665.925659,578.755432 664.765259,578.724121 
	C662.874634,578.672974 659.595520,579.225891 659.258423,580.278503 
	C655.684814,591.437500 652.577209,602.745667 649.316895,614.097534 
	C655.753967,614.927246 655.728516,614.914185 658.297302,609.906860 
	C658.536316,609.440918 659.364136,609.277039 660.799561,608.925415 
M848.203064,587.574524 
	C845.726929,596.330505 843.250854,605.086426 840.489319,614.851501 
	C843.718872,614.407959 847.927734,614.470703 848.082764,613.708801 
	C849.523010,606.628418 854.513184,609.337585 858.469482,609.127014 
	C860.471680,615.345032 860.941467,615.579651 867.625549,613.697693 
	C864.927917,602.916504 862.336975,592.093628 859.377441,581.372437 
	C859.037476,580.141174 856.634888,578.732300 855.198975,578.743408 
	C853.486206,578.756592 851.281677,579.811462 850.214600,581.151245 
	C849.067444,582.591614 848.992371,584.885681 848.203064,587.574524 
M618.031738,578.587036 
	C617.390564,579.183044 616.196106,579.773560 616.190186,580.375854 
	C616.078552,591.619385 616.108215,602.864258 616.108215,614.140015 
	C619.083130,614.140015 621.436401,614.140015 624.252014,614.140015 
	C624.252014,609.435120 624.252014,605.186584 624.252014,600.872375 
	C626.173828,600.601624 627.652100,600.447266 629.109253,600.178650 
	C635.057007,599.081909 638.021606,595.429077 637.910950,589.391846 
	C637.794617,583.044922 634.644592,579.398315 628.384277,578.771851 
	C625.252502,578.458435 622.073608,578.616028 618.031738,578.587036 
M943.472351,599.661072 
	C945.099731,599.581970 946.727112,599.502869 948.494507,599.416992 
	C948.494507,597.041199 948.494507,595.012939 948.494507,592.897644 
	C945.889099,592.691345 943.639771,592.513184 941.331238,592.330383 
	C941.331238,589.992676 941.331238,588.086609 941.331238,586.023499 
	C944.252747,585.844055 946.858459,585.684021 949.735596,585.507324 
	C949.735596,583.182434 949.735596,581.112915 949.735596,578.935303 
	C944.149048,578.935303 938.761047,578.935303 933.383667,578.935303 
	C933.383667,590.901733 933.383667,602.484558 933.383667,614.191040 
	C939.384949,614.191040 945.083862,614.191040 950.746704,614.191040 
	C950.746704,611.707581 950.746704,609.637329 950.746704,606.957031 
	C947.347107,606.957031 944.294739,606.957031 940.129089,606.957031 
	C941.138611,603.965454 941.854065,601.845337 943.472351,599.661072 
M503.290833,615.019714 
	C510.156616,614.789551 507.635559,610.039612 507.712799,606.121582 
	C503.376556,607.524292 498.894104,609.003235 496.270844,604.410950 
	C493.493866,599.549561 493.639526,594.008423 496.108429,589.039612 
	C498.602142,584.020813 503.180603,585.322144 507.378479,586.733948 
	C508.522522,579.218628 507.323639,577.788208 500.229279,577.922607 
	C493.951630,578.041565 489.510437,581.391235 487.877136,587.062317 
	C486.537323,591.714539 486.062195,596.948730 486.645630,601.749695 
	C487.726471,610.643860 493.295990,614.869751 503.290833,615.019714 
M757.428467,578.616272 
	C749.100037,576.051270 749.720886,584.375427 746.590576,588.344604 
	C740.901367,577.456726 740.878296,577.440613 733.860901,579.536072 
	C739.546875,590.440979 745.529297,601.274841 742.703308,614.232666 
	C746.044434,614.232666 748.286682,614.232666 750.887390,614.232666 
	C750.887390,612.060120 751.003967,610.241699 750.866455,608.442627 
	C750.374573,602.006348 751.385132,595.923218 754.173035,590.022461 
	C755.839661,586.494995 756.782349,582.625610 757.428467,578.616272 
M637.438904,648.734314 
	C639.041504,650.755371 640.071838,650.370605 640.440125,647.943420 
	C640.665344,646.458862 640.682983,644.942688 640.809326,643.230652 
	C644.341003,645.084961 643.675171,651.483032 649.766724,649.447327 
	C649.115540,645.163757 651.028259,640.593689 648.704529,636.619080 
	C648.125916,636.670776 647.547302,636.722473 646.968689,636.774231 
	C646.968689,639.272583 646.968689,641.770996 646.968689,644.269348 
	C644.897217,642.759338 644.064270,640.813843 642.798706,639.209595 
	C641.883179,638.049072 640.393311,637.341614 639.159546,636.432129 
	C638.547302,637.769226 637.565369,639.063416 637.404297,640.452820 
	C637.120117,642.902649 637.336853,645.410583 637.438904,648.734314 
M560.987183,642.573669 
	C559.370544,642.573669 557.753906,642.573669 555.408203,642.573669 
	C556.749390,644.523193 557.419678,645.497559 558.089966,646.471924 
	C557.676453,646.866760 557.262878,647.261658 556.849365,647.656494 
	C555.821960,646.529419 554.102295,645.520386 553.886353,644.254822 
	C552.928955,638.643066 557.647156,639.153503 561.719727,638.562256 
	C558.753052,635.092407 555.911621,635.806824 553.406616,637.362671 
	C549.932922,639.520264 549.333313,642.994385 550.833984,646.560364 
	C552.369019,650.207947 555.546448,650.977173 559.161804,650.124451 
	C563.595215,649.078857 561.148804,645.661804 560.987183,642.573669 
M935.438171,649.916870 
	C936.561401,648.525940 937.684631,647.134949 938.663147,645.923218 
	C940.225464,647.252747 942.013672,648.774414 944.408081,650.812012 
	C943.749878,647.326294 943.253174,645.263794 942.997925,643.171753 
	C942.778687,641.375122 943.508057,638.525879 942.627869,637.944702 
	C940.880005,636.790833 938.215942,636.338623 936.129456,636.710999 
	C935.257141,636.866577 934.512085,639.836060 934.385132,641.575500 
	C934.194092,644.191406 934.597290,646.850647 935.438171,649.916870 
M875.095459,638.766418 
	C874.633484,638.020874 874.171509,637.275330 873.709534,636.529785 
	C873.167908,637.188721 872.188049,637.828979 872.158997,638.509766 
	C872.017944,641.817810 872.045349,645.141724 872.235046,648.447266 
	C872.268982,649.038879 873.347046,649.570679 873.893311,650.083435 
	C875.038208,648.014404 875.630676,645.270508 876.979004,644.827454 
	C880.702515,643.604187 879.765137,647.207214 880.494995,649.109192 
	C880.656067,649.528992 881.716370,650.028931 882.052979,649.863220 
	C882.657776,649.565369 883.405518,648.808960 883.433289,648.213257 
	C883.580139,645.070251 883.617737,641.912903 883.464417,638.771667 
	C883.426514,637.995850 882.535828,637.261658 882.037292,636.508423 
	C881.406799,637.252502 880.444275,637.902527 880.202332,638.756653 
	C879.061584,642.783447 877.354187,642.453003 875.095459,638.766418 
M730.589661,650.408630 
	C736.748901,650.255066 734.763916,646.106750 734.683411,642.244385 
	C732.675842,642.367554 731.042480,642.467712 729.409119,642.567871 
	C729.064026,643.171143 728.718872,643.774414 728.373779,644.377747 
	C729.813232,644.752136 731.252747,645.126526 732.692200,645.500977 
	C732.112427,646.201416 731.532654,646.901917 730.952881,647.602417 
	C729.672974,646.753479 727.561829,646.135803 727.250732,645.017395 
	C725.499573,638.721741 731.038147,639.336853 734.605957,637.437500 
	C731.904297,636.724854 728.770691,636.097046 727.132446,637.379517 
	C725.281982,638.828064 724.040222,641.939697 723.858765,644.424805 
	C723.593811,648.052979 726.141724,650.084045 730.589661,650.408630 
M520.102051,642.544861 
	C519.398254,644.912598 518.694397,647.280334 517.684387,650.678040 
	C520.750671,649.013184 522.606995,647.220703 524.462708,647.221436 
	C526.266174,647.222168 528.069031,649.061523 531.005554,650.742249 
	C529.295959,645.800903 528.220398,642.321045 526.853088,638.959778 
	C526.426819,637.911987 525.022034,636.350464 524.398743,636.492065 
	C523.243774,636.754456 522.189453,637.985107 521.372192,639.030579 
	C520.793213,639.771179 520.673035,640.870361 520.102051,642.544861 
M758.165771,637.665222 
	C757.467468,639.113586 756.014221,640.688110 756.230591,641.983643 
	C756.658142,644.542847 757.396362,647.670959 759.178040,649.182129 
	C760.547058,650.343262 764.519409,650.318665 765.876892,649.141235 
	C767.645508,647.607300 768.761047,644.409912 768.754333,641.932129 
	C768.741028,637.026855 764.632568,635.294067 758.165771,637.665222 
M798.006714,648.125244 
	C796.618042,647.536133 795.229309,646.947021 793.086487,646.038025 
	C795.196838,644.873535 796.581299,644.109558 798.449341,643.078735 
	C796.495239,641.929138 795.128357,641.125000 793.053162,639.904175 
	C795.411255,639.210022 796.841614,638.788940 798.271973,638.367859 
	C798.269470,637.831909 798.266968,637.296021 798.264404,636.760071 
	C795.681091,636.630066 793.097717,636.500122 790.575195,636.373230 
	C790.575195,641.363953 790.575195,645.555969 790.575195,650.589722 
	C793.503845,649.905212 795.860168,649.354492 798.006714,648.125244 
M671.284241,641.730103 
	C671.284241,644.335571 671.284241,646.941040 671.284241,650.136780 
	C674.405640,649.926819 676.888367,649.759827 679.371155,649.592834 
	C679.389832,649.157349 679.408447,648.721802 679.427124,648.286255 
	C677.932068,647.645203 676.436951,647.004150 674.168396,646.031433 
	C676.271973,644.870544 677.643311,644.113647 679.589783,643.039429 
	C677.511108,642.085205 676.098572,641.436768 673.478271,640.233948 
	C676.353821,639.322937 677.887390,638.837097 679.420898,638.351257 
	C679.401733,637.746338 679.382568,637.141479 679.363403,636.536560 
	C677.171936,636.536560 674.852844,636.119263 672.848755,636.732117 
	C671.989807,636.994690 671.785950,639.399902 671.284241,641.730103 
M911.835022,636.474915 
	C909.740906,636.474915 907.646790,636.474915 905.508057,636.474915 
	C905.508057,641.276367 905.508057,645.492493 905.508057,650.182678 
	C908.284180,649.925842 910.633911,649.708435 912.983643,649.491089 
	C912.985840,649.104614 912.988037,648.718201 912.990234,648.331726 
	C911.568909,647.615845 910.147644,646.899963 908.111694,645.874451 
	C910.245972,644.806396 911.585693,644.136047 913.542480,643.156860 
	C911.560242,641.974304 910.191223,641.157593 909.221375,640.578979 
	C910.494995,639.146729 911.528748,637.984192 911.835022,636.474915 
M969.118408,645.538330 
	C970.440552,644.827820 971.762756,644.117310 973.700073,643.076233 
	C971.610291,642.125122 970.186340,641.476990 967.663879,640.328979 
	C970.447632,639.294006 972.030823,638.705383 974.191528,637.902039 
	C967.262451,634.774048 965.416626,635.768188 965.393127,641.852173 
	C965.383118,644.458069 965.391479,647.064087 965.391479,650.138977 
	C968.579407,649.952209 971.031433,649.808533 973.483459,649.664795 
	C973.522705,649.276245 973.561890,648.887756 973.601135,648.499207 
	C972.099060,647.780823 970.596985,647.062439 969.118408,645.538330 
M820.450562,650.057129 
	C822.748352,649.259155 825.046143,648.461243 827.343933,647.663269 
	C825.854065,644.952209 824.364197,642.241150 822.805054,639.403992 
	C823.816162,639.283508 825.390747,639.095825 827.229248,638.876648 
	C824.814453,636.000244 822.411560,635.321777 820.555603,637.160278 
	C815.368774,642.298462 822.813599,643.481445 824.236938,647.114502 
	C822.457153,647.114502 821.160461,646.968689 819.956665,647.238098 
	C819.717224,647.291687 819.833557,648.934998 820.450562,650.057129 
M584.432434,636.476196 
	C583.845032,640.815430 583.257568,645.154663 582.575989,650.189514 
	C586.461243,649.941895 589.082886,649.774780 591.704529,649.607666 
	C591.904541,649.076294 592.104553,648.544861 592.304504,648.013489 
	C585.975952,647.963806 586.262085,644.030029 586.446167,639.961243 
	C586.497131,638.835266 585.642456,637.668335 584.432434,636.476196 
M494.334717,636.337219 
	C492.319427,636.482483 490.304108,636.627808 488.288818,636.773071 
	C495.609467,639.351440 489.707916,646.649109 493.757141,650.543884 
	C497.035461,646.530823 491.673767,639.454468 498.764984,636.947266 
	C497.568176,636.744080 496.371399,636.540955 494.334717,636.337219 
M615.774780,641.676331 
	C615.775208,641.019348 615.973938,640.276611 615.734619,639.723267 
	C615.239746,638.578796 614.511719,637.535034 613.879578,636.449829 
	C613.369202,637.486816 612.495911,638.497681 612.419067,639.565857 
	C612.219055,642.342773 612.261047,645.152344 612.454651,647.931641 
	C612.503418,648.632263 613.483582,649.268066 614.035767,649.933655 
	C614.604736,649.287170 615.566589,648.695068 615.665100,647.983398 
	C615.910645,646.209412 615.763611,644.381165 615.774780,641.676331 
z"/>
<path fill="#F2F2F2" opacity="1.000000" stroke="none" 
	d="
M428.540771,909.685913 
	C423.590973,908.595398 418.969482,907.942078 414.577209,906.560059 
	C412.830231,906.010315 411.590820,903.847290 410.120361,902.418762 
	C411.684601,900.919128 413.053192,898.436157 414.844849,898.079590 
	C426.331268,895.793945 437.844116,893.300842 449.474274,892.155029 
	C468.579803,890.272766 487.781189,889.363098 506.942383,888.046753 
	C507.440643,888.012573 507.941620,888.015198 508.441406,888.005920 
	C526.397644,887.671021 544.354126,887.348450 562.310059,886.999023 
	C578.600037,886.682007 594.889709,886.062012 611.179077,886.075562 
	C629.302246,886.090637 647.428711,886.536133 665.546753,887.043945 
	C682.965271,887.532166 700.402100,887.939941 717.780396,889.124268 
	C733.767517,890.213684 749.697266,892.201111 765.632507,893.970642 
	C772.824219,894.769226 780.063721,895.587646 787.090393,897.219849 
	C790.262512,897.956726 792.967651,900.704041 795.884644,902.539124 
	C793.159607,904.100037 790.606262,906.202698 787.680420,907.130005 
	C773.572144,911.601501 758.865784,912.103088 744.254333,912.959167 
	C724.393311,914.122864 704.488342,914.632202 684.651245,916.089111 
	C641.263062,919.275696 597.824341,917.725464 554.408630,917.874390 
	C536.830933,917.934692 519.218323,917.100037 501.676147,915.885254 
	C479.903625,914.377625 458.188812,912.039856 436.445526,910.100647 
	C433.962372,909.879211 431.456360,909.914673 428.540771,909.685913 
z"/>
<path fill="#FD8D30" opacity="1.000000" stroke="none" 
	d="
M209.052521,501.826385 
	C203.728973,488.244690 198.579010,474.591278 193.009537,461.111206 
	C190.172897,454.245544 186.582306,447.691406 182.995895,440.302979 
	C189.554779,439.463318 195.725327,438.729034 201.879349,437.875519 
	C224.008728,434.806274 245.346237,428.563446 266.720459,422.260925 
	C277.237152,419.159973 288.321198,417.983124 299.934143,415.957947 
	C302.629913,415.980377 304.540009,415.980377 308.093597,415.980377 
	C277.048187,451.678284 247.085709,486.130951 216.573181,521.216125 
	C215.621704,518.840088 214.788422,516.780579 213.971497,514.714600 
	C212.540421,511.095367 211.119370,507.472198 209.694107,503.850708 
	C209.694107,503.850708 209.694260,503.656464 209.806747,503.307800 
	C209.754425,502.287842 209.589630,501.616486 209.424835,500.945160 
	C209.300735,501.238922 209.176636,501.532654 209.052521,501.826385 
z"/>
<path fill="#4E30AF" opacity="1.000000" stroke="none" 
	d="
M516.934631,850.580017 
	C497.511047,844.166199 477.689728,838.808105 459.216309,828.416382 
	C459.120758,826.374634 458.845001,824.423096 459.692596,823.455505 
	C471.769165,809.669678 484.068512,796.078796 496.122650,782.273682 
	C498.233124,779.856628 499.467621,776.674622 501.106689,773.845886 
	C507.266296,776.901306 513.625305,779.618164 519.534241,783.099121 
	C526.720459,787.332458 533.527344,792.209534 541.159485,797.244385 
	C546.494324,775.158630 554.920532,754.469116 565.682251,734.122314 
	C566.363770,733.078674 566.523315,732.410095 566.682861,731.741455 
	C566.682800,731.741455 566.788696,731.841553 567.058105,731.710938 
	C567.800110,729.978333 568.272705,728.376465 568.745239,726.774536 
	C568.745239,726.774536 568.759949,726.892883 569.049683,726.735046 
	C570.904785,722.244263 572.452881,717.904907 574.041077,713.580322 
	C575.325500,710.082764 576.186462,706.312134 578.105225,703.198853 
	C579.936035,700.228271 582.984375,698.031494 585.321106,695.341309 
	C587.014038,693.392334 588.418945,691.193176 589.952332,689.105591 
	C590.310852,689.613953 590.669434,690.122314 591.028015,690.630676 
	C592.224670,692.073975 593.421387,693.517273 594.618042,694.960571 
	C600.557007,713.328613 601.110474,732.117188 598.642578,751.195557 
	C598.073364,746.638550 597.863831,741.999634 597.654358,737.360657 
	C597.197510,737.224182 596.740723,737.087708 596.283875,736.951233 
	C565.366272,772.480835 534.448608,808.010437 503.020386,844.126892 
	C506.154938,845.372131 508.024628,845.999695 509.790436,846.844421 
	C512.213074,848.003418 514.557007,849.326965 516.934631,850.580017 
z"/>
<path fill="#3751BD" opacity="1.000000" stroke="none" 
	d="
M517.289062,850.778442 
	C514.557007,849.326965 512.213074,848.003418 509.790436,846.844421 
	C508.024628,845.999695 506.154938,845.372131 503.020386,844.126892 
	C534.448608,808.010437 565.366272,772.480835 596.283875,736.951233 
	C596.740723,737.087708 597.197510,737.224182 597.654358,737.360657 
	C597.863831,741.999634 598.073364,746.638550 598.529541,751.597290 
	C598.790161,752.399841 598.804138,752.882751 598.366943,753.805908 
	C597.846191,756.131104 597.776733,758.015991 597.707275,759.900940 
	C595.186768,770.717773 593.491760,781.810608 589.984497,792.297363 
	C581.003479,819.150085 573.534790,846.289307 570.589294,875.118469 
	C568.812561,874.235474 567.403870,873.505615 565.970642,872.827698 
	C550.690247,865.600220 535.410889,858.370300 520.106506,851.193909 
	C519.405640,850.865234 518.469849,851.037781 517.289062,850.778442 
z"/>
<path fill="#F92E66" opacity="1.000000" stroke="none" 
	d="
M223.977554,759.989868 
	C224.303146,742.261780 224.628754,724.533752 225.345306,706.225586 
	C230.596237,701.125916 235.794205,696.913513 240.242111,692.019409 
	C248.213791,683.248230 255.732178,674.065186 263.443939,665.057678 
	C268.258942,659.433594 273.055542,653.793579 277.905182,648.199463 
	C290.237305,633.974182 302.559326,619.739807 314.957123,605.571838 
	C320.962036,598.709473 327.275482,592.112610 333.158813,585.150208 
	C336.097290,581.672729 338.382843,577.643616 341.299988,573.655151 
	C344.107758,573.282532 346.579254,573.118774 349.139038,572.949951 
	C349.227356,572.944824 349.576385,572.903992 350.016174,572.732910 
	C351.390717,572.534729 352.325500,572.507690 353.596954,572.662415 
	C361.122253,572.844238 368.310913,572.844238 376.539337,572.844238 
	C375.177032,575.280518 374.702667,576.734802 373.750702,577.734131 
	C367.068878,584.748474 363.335815,594.486206 354.026672,599.076050 
	C353.990967,599.049316 354.065552,599.087524 353.699707,599.068848 
	C351.934906,599.783691 350.535980,600.517334 349.074219,601.183838 
	C349.011322,601.116699 349.170380,601.209167 348.818298,601.172119 
	C347.368927,601.852539 346.271637,602.569946 345.081604,603.194153 
	C344.988831,603.100891 345.199219,603.258789 344.863556,603.207092 
	C344.114624,603.577271 343.701355,603.999207 343.235687,604.378723 
	C343.183289,604.336365 343.310791,604.292786 343.031311,604.307617 
	C342.538513,604.608826 342.325165,604.895264 341.925873,605.458435 
	C325.537903,615.903870 313.896881,630.077332 306.935883,647.690369 
	C302.680023,658.458679 300.057831,669.872742 296.490143,680.690002 
	C296.020477,678.664551 295.762604,676.945801 295.341919,674.141907 
	C293.246338,675.805298 291.694244,676.684570 290.603455,677.958679 
	C281.336975,688.782471 272.303192,699.808655 262.909088,710.519287 
	C251.138077,723.939941 239.075928,737.104980 227.204910,750.438660 
	C226.507828,751.221680 226.223618,752.496338 226.042526,753.591003 
	C225.531128,756.682373 225.173508,759.799133 224.707123,763.263794 
	C224.286713,762.720032 224.123123,762.605957 224.113434,762.480042 
	C224.049652,761.651428 224.018997,760.820251 223.977554,759.989868 
z"/>
<path fill="#FB3A57" opacity="1.000000" stroke="none" 
	d="
M340.963715,573.864014 
	C338.382843,577.643616 336.097290,581.672729 333.158813,585.150208 
	C327.275482,592.112610 320.962036,598.709473 314.957123,605.571838 
	C302.559326,619.739807 290.237305,633.974182 277.905182,648.199463 
	C273.055542,653.793579 268.258942,659.433594 263.443939,665.057678 
	C255.732178,674.065186 248.213791,683.248230 240.242111,692.019409 
	C235.794205,696.913513 230.596237,701.125916 225.454422,705.804565 
	C227.025116,667.132751 237.888168,631.990295 267.171204,604.132202 
	C262.400543,599.598328 257.759186,595.187317 253.360168,590.448364 
	C255.213531,590.421509 257.754395,591.522339 258.290588,590.898987 
	C263.202637,585.187866 267.766632,579.177368 272.630310,573.583435 
	C275.503998,580.478943 278.179535,587.045227 280.967529,593.887573 
	C300.037537,582.876343 319.699097,575.922913 340.963715,573.864014 
z"/>
<path fill="#F82177" opacity="1.000000" stroke="none" 
	d="
M223.807663,760.335999 
	C224.018997,760.820251 224.049652,761.651428 224.113434,762.480042 
	C224.123123,762.605957 224.286713,762.720032 224.707123,763.263794 
	C225.173508,759.799133 225.531128,756.682373 226.042526,753.591003 
	C226.223618,752.496338 226.507828,751.221680 227.204910,750.438660 
	C239.075928,737.104980 251.138077,723.939941 262.909088,710.519287 
	C272.303192,699.808655 281.336975,688.782471 290.603455,677.958679 
	C291.694244,676.684570 293.246338,675.805298 295.341919,674.141907 
	C295.762604,676.945801 296.020477,678.664551 296.538635,680.994751 
	C296.592560,682.170227 296.386169,682.734314 295.937744,683.097717 
	C295.494751,684.783386 295.293793,686.669617 295.238525,688.961426 
	C293.876007,710.259583 289.217224,730.521057 282.574341,750.972900 
	C285.086182,750.972900 287.037323,750.972900 289.179932,751.253784 
	C293.082581,755.608704 288.588837,757.447021 286.815033,759.505798 
	C277.775635,769.997620 268.425842,780.221436 259.252686,790.599182 
	C258.037018,791.974426 257.209564,793.692749 255.679184,796.062195 
	C258.481934,796.062195 260.284576,796.062195 262.087189,796.062195 
	C256.917145,796.817261 251.744904,797.557678 246.577530,798.330566 
	C237.116165,799.745850 227.657654,801.180298 217.949280,802.644287 
	C219.522141,792.229065 221.074188,781.951599 223.015381,771.465759 
	C223.356323,769.864380 223.308151,768.471375 223.259964,767.078369 
	C223.385910,764.946289 223.511841,762.814209 223.807663,760.335999 
z"/>
<path fill="#C21197" opacity="1.000000" stroke="none" 
	d="
M398.947876,770.086182 
	C398.037842,770.324463 396.977875,770.338867 396.239410,770.833496 
	C370.018707,788.392822 340.521210,794.780090 309.602631,795.890625 
	C295.017029,796.414429 280.400360,796.073303 265.753326,795.725342 
	C281.471588,794.882141 297.235016,794.459900 312.995941,793.959045 
	C314.561432,793.909363 316.755920,793.933655 317.568176,792.987610 
	C324.780121,784.587280 331.733185,775.965149 338.790833,767.431824 
	C341.744171,763.860962 344.765320,760.346252 347.714752,756.854370 
	C344.901245,755.862976 342.450439,754.999329 340.441132,754.018066 
	C342.867584,753.964783 344.889679,753.805908 346.831451,754.129456 
	C360.179657,756.352783 373.506409,756.128784 386.829926,753.990112 
	C388.543243,753.715027 390.234161,753.300415 392.015930,752.933960 
	C388.031006,737.061523 386.274597,721.630127 388.396301,706.233887 
	C388.799500,711.690735 388.802765,716.835083 389.143524,721.957092 
	C389.229584,723.250366 390.393982,724.471863 391.062805,725.726318 
	C392.258575,725.013489 393.607574,724.467285 394.610718,723.544922 
	C395.812317,722.440063 396.662933,720.964417 397.762085,719.735657 
	C403.832306,712.949524 410.092621,706.323242 415.907440,699.326111 
	C417.344025,697.597412 417.682098,694.730347 417.966858,692.320557 
	C418.447418,688.254150 418.482056,684.135071 418.704224,680.038147 
	C419.980774,697.406006 425.360168,713.272095 435.753784,727.702148 
	C428.796997,735.848755 422.044128,743.500732 415.330139,751.186646 
	C409.845306,757.465454 404.406891,763.784790 398.947876,770.086182 
z"/>
<path fill="#FC6033" opacity="1.000000" stroke="none" 
	d="
M338.062073,414.720703 
	C345.218384,415.987183 352.374664,417.253662 359.865234,418.900574 
	C360.199524,419.281036 360.567505,419.449768 360.567505,419.449768 
	C360.567505,419.449768 360.866364,419.130646 360.866364,419.130646 
	C361.473694,419.231232 362.081024,419.331848 363.087158,419.949097 
	C367.393921,421.882904 371.301941,423.300018 375.209930,424.717133 
	C375.209930,424.717133 375.065216,424.688263 375.235779,424.998688 
	C376.023376,425.410461 376.640442,425.511780 377.257477,425.613129 
	C377.257477,425.613129 377.068604,425.581696 377.243774,425.924500 
	C378.286804,426.485168 379.154663,426.703064 380.022491,426.920929 
	C380.022491,426.920929 380.040039,426.953369 380.180115,427.185028 
	C380.647491,427.513000 380.974731,427.609283 381.301971,427.705566 
	C381.301971,427.705597 381.180145,427.695923 381.262634,428.021973 
	C383.248291,429.204987 385.151398,430.061890 387.054504,430.918823 
	C387.054504,430.918823 387.053986,430.986450 387.042664,431.332947 
	C386.617310,432.922577 386.529510,434.447845 385.737244,435.363861 
	C379.724579,442.315826 373.542725,449.120972 367.477417,456.027954 
	C363.445953,460.618896 359.130859,465.031158 355.653687,470.019012 
	C352.057404,475.177734 348.541901,478.817169 341.386139,478.251129 
	C336.421600,477.858368 331.287659,479.606628 325.902008,480.658142 
	C320.796021,481.493561 316.015503,482.053589 311.239258,482.648254 
	C304.667389,483.466522 298.098785,484.311066 291.098145,485.108124 
	C289.115875,485.376068 287.564270,485.680206 285.703674,486.105194 
	C284.741974,486.196381 284.089203,486.166748 282.932037,486.118225 
	C282.091522,486.116638 281.755463,486.133942 281.227844,486.347900 
	C280.675140,486.562744 280.314026,486.580902 280.047119,486.231323 
	C281.307312,483.864838 282.197662,481.627808 283.685333,479.907257 
	C291.456909,470.918945 299.445435,462.118439 307.231903,453.142761 
	C314.717804,444.513580 322.157318,435.838989 329.398499,427.005127 
	C332.566711,423.140106 335.190857,418.829132 338.062073,414.720703 
z"/>
<path fill="#8E129D" opacity="1.000000" stroke="none" 
	d="
M398.997253,770.439331 
	C404.406891,763.784790 409.845306,757.465454 415.330139,751.186646 
	C422.044128,743.500732 428.796997,735.848755 435.850983,728.034851 
	C447.455444,741.596558 461.123138,752.393311 476.911438,761.554321 
	C478.884674,764.350220 479.236847,766.112732 477.038269,768.614868 
	C465.260803,782.018677 453.820801,795.719299 442.018066,809.100159 
	C440.311493,811.035034 437.276031,811.797668 434.855530,813.102783 
	C434.855530,813.102783 434.946167,813.069641 434.914185,812.930298 
	C434.605316,812.743835 434.328461,812.696716 434.051575,812.649536 
	C418.996582,801.529480 407.315826,787.587524 398.997253,770.439331 
z"/>
<path fill="#FD7232" opacity="1.000000" stroke="none" 
	d="
M337.723328,414.512970 
	C335.190857,418.829132 332.566711,423.140106 329.398499,427.005127 
	C322.157318,435.838989 314.717804,444.513580 307.231903,453.142761 
	C299.445435,462.118439 291.456909,470.918945 283.685333,479.907257 
	C282.197662,481.627808 281.307312,483.864838 279.652222,486.327515 
	C270.151642,486.791504 261.140198,486.791504 251.501038,486.791504 
	C252.569092,490.687958 253.296295,493.340912 254.024551,496.365936 
	C254.410538,497.807770 254.795471,498.877533 255.137070,499.957886 
	C255.093719,499.968414 255.114395,499.881622 255.089462,500.288605 
	C256.146820,503.761200 257.229126,506.826843 258.342346,509.880249 
	C258.373291,509.868073 258.437805,509.852112 258.319550,510.230438 
	C257.665466,511.713104 257.349579,513.018066 256.556458,513.887695 
	C252.720901,518.092957 248.714218,522.141602 244.848648,526.320190 
	C238.737061,532.926636 232.689529,539.592346 226.518524,546.338379 
	C224.849197,544.475220 223.792084,543.295410 222.734970,542.115540 
	C222.734970,542.115540 222.834244,542.081726 222.849884,541.749390 
	C221.279282,537.954895 219.693039,534.492615 218.106796,531.030396 
	C215.312592,522.258850 212.518402,513.487305 209.709167,504.283203 
	C211.119370,507.472198 212.540421,511.095367 213.971497,514.714600 
	C214.788422,516.780579 215.621704,518.840088 216.573181,521.216125 
	C247.085709,486.130951 277.048187,451.678284 308.093597,415.980377 
	C304.540009,415.980377 302.629913,415.980377 300.287964,415.966858 
	C309.085785,415.122772 318.305878,414.146423 327.550232,413.540588 
	C330.797729,413.327759 334.104797,414.024048 337.723328,414.512970 
z"/>
<path fill="#FB3A57" opacity="1.000000" stroke="none" 
	d="
M326.229370,480.398254 
	C331.287659,479.606628 336.421600,477.858368 341.386139,478.251129 
	C348.541901,478.817169 352.057404,475.177734 355.653687,470.019012 
	C359.130859,465.031158 363.445953,460.618896 367.477417,456.027954 
	C373.542725,449.120972 379.724579,442.315826 385.737244,435.363861 
	C386.529510,434.447845 386.617310,432.922577 387.060181,431.303955 
	C403.054260,439.970428 414.889862,453.201019 425.011047,468.930145 
	C425.838654,470.664612 426.592987,471.713745 427.347351,472.762878 
	C427.347351,472.762878 427.352539,472.731140 427.222717,473.087952 
	C426.798676,474.030762 426.605194,474.701355 426.194946,475.190002 
	C420.595551,481.859009 415.111298,488.635437 409.241699,495.059265 
	C407.782684,496.656036 405.053955,497.092621 402.581848,497.962646 
	C397.095673,494.844879 392.131989,491.409576 386.742004,488.884033 
	C367.486481,479.861664 347.014496,478.864319 326.229370,480.398254 
z"/>
<path fill="#E50F94" opacity="1.000000" stroke="none" 
	d="
M418.780884,679.702759 
	C418.482056,684.135071 418.447418,688.254150 417.966858,692.320557 
	C417.682098,694.730347 417.344025,697.597412 415.907440,699.326111 
	C410.092621,706.323242 403.832306,712.949524 397.762085,719.735657 
	C396.662933,720.964417 395.812317,722.440063 394.610718,723.544922 
	C393.607574,724.467285 392.258575,725.013489 391.062805,725.726318 
	C390.393982,724.471863 389.229584,723.250366 389.143524,721.957092 
	C388.802765,716.835083 388.799500,711.690735 388.334503,705.797546 
	C391.898224,662.429688 405.389740,624.498718 441.485077,597.182129 
	C437.791443,596.255615 434.905396,595.531677 432.285126,594.574280 
	C433.975830,593.076782 437.584839,595.767883 437.766602,591.728943 
	C440.026459,593.191345 441.951050,594.570374 444.676086,596.523010 
	C444.234833,591.020813 443.872772,586.505798 443.840942,582.126831 
	C444.900299,585.208557 445.629395,588.154236 446.604736,592.094666 
	C447.270599,589.992615 447.692169,588.793823 448.030212,587.571960 
	C449.548187,582.084900 451.042450,576.591248 452.545227,571.099976 
	C450.648376,579.113770 449.462646,587.391357 446.620728,595.054688 
	C444.498474,600.777527 439.929932,605.542358 436.990997,611.023438 
	C430.094971,623.884583 424.726532,637.370728 421.570831,651.678162 
	C421.292603,652.939575 420.663727,654.123535 419.797516,655.946655 
	C419.178528,661.021545 418.959747,665.493286 418.740967,669.965088 
	C418.769775,671.691101 418.798553,673.417175 418.471252,675.620483 
	C418.288361,676.738037 418.461578,677.378418 418.634766,678.018738 
	C418.709015,678.468262 418.783264,678.917847 418.780884,679.702759 
M439.515656,594.419128 
	C439.515656,594.419128 439.575439,594.522217 439.515656,594.419128 
z"/>
<path fill="#E50F94" opacity="1.000000" stroke="none" 
	d="
M339.999634,754.135742 
	C342.450439,754.999329 344.901245,755.862976 347.714752,756.854370 
	C344.765320,760.346252 341.744171,763.860962 338.790833,767.431824 
	C331.733185,775.965149 324.780121,784.587280 317.568176,792.987610 
	C316.755920,793.933655 314.561432,793.909363 312.995941,793.959045 
	C297.235016,794.459900 281.471588,794.882141 265.405212,795.593140 
	C264.348877,795.918762 263.596161,795.977783 262.465332,796.049500 
	C260.284576,796.062195 258.481934,796.062195 255.679184,796.062195 
	C257.209564,793.692749 258.037018,791.974426 259.252686,790.599182 
	C268.425842,780.221436 277.775635,769.997620 286.815033,759.505798 
	C288.588837,757.447021 293.082581,755.608704 289.582397,751.145508 
	C306.703644,749.285217 323.402924,750.948425 339.999634,754.135742 
z"/>
<path fill="#FC6033" opacity="1.000000" stroke="none" 
	d="
M222.726166,542.499817 
	C223.792084,543.295410 224.849197,544.475220 226.518524,546.338379 
	C232.689529,539.592346 238.737061,532.926636 244.848648,526.320190 
	C248.714218,522.141602 252.720901,518.092957 256.556458,513.887695 
	C257.349579,513.018066 257.665466,511.713104 258.521729,510.539154 
	C259.457977,513.331482 260.149200,516.179626 260.676788,519.057739 
	C263.171478,532.666992 265.621490,546.284424 268.068054,560.310059 
	C269.463989,564.833862 270.879303,568.946655 272.344666,573.097046 
	C272.394684,573.134705 272.432190,573.254211 272.432190,573.254211 
	C267.766632,579.177368 263.202637,585.187866 258.290588,590.898987 
	C257.754395,591.522339 255.213531,590.421509 253.252838,590.135742 
	C252.903168,590.151123 252.904129,590.115967 252.818497,589.865601 
	C252.446228,589.440613 252.159576,589.266113 251.872940,589.091614 
	C251.602524,588.907410 251.332108,588.723267 250.982910,587.974060 
	C250.461136,587.054932 250.018158,586.700867 249.575195,586.346802 
	C249.575195,586.346802 249.651062,586.160583 249.651215,585.966187 
	C249.326569,585.605286 249.001770,585.438721 248.676971,585.272217 
	C248.676956,585.272217 248.797516,585.127563 248.733734,584.930237 
	C248.346451,584.563782 248.022919,584.394714 247.699387,584.225586 
	C247.699387,584.225586 247.805267,584.170532 247.752106,583.950623 
	C247.399796,583.533386 247.100632,583.336060 246.801453,583.138733 
	C246.801453,583.138733 246.893753,583.078735 246.806778,582.877380 
	C246.433578,582.487366 246.147339,582.298767 245.861115,582.110107 
	C235.824677,570.404663 228.508255,557.094421 222.726166,542.499817 
z"/>
<path fill="#6515A2" opacity="1.000000" stroke="none" 
	d="
M435.017883,813.399048 
	C437.276031,811.797668 440.311493,811.035034 442.018066,809.100159 
	C453.820801,795.719299 465.260803,782.018677 477.038269,768.614868 
	C479.236847,766.112732 478.884674,764.350220 477.139526,761.774292 
	C485.017426,765.327820 492.963074,769.257202 501.007721,773.516235 
	C499.467621,776.674622 498.233124,779.856628 496.122650,782.273682 
	C484.068512,796.078796 471.769165,809.669678 459.692596,823.455505 
	C458.845001,824.423096 459.120758,826.374634 458.937256,828.179199 
	C451.060333,823.558289 443.120300,818.626831 435.017883,813.399048 
z"/>
<path fill="#F82177" opacity="1.000000" stroke="none" 
	d="
M452.687195,570.687195 
	C451.042450,576.591248 449.548187,582.084900 448.030212,587.571960 
	C447.692169,588.793823 447.270599,589.992615 446.604736,592.094666 
	C445.629395,588.154236 444.900299,585.208557 443.693237,581.730957 
	C440.494263,559.949219 434.639526,539.712341 424.171600,521.064575 
	C426.167084,519.796204 428.040863,518.778381 429.345703,517.268860 
	C433.662598,512.274658 437.774170,507.103027 441.964539,501.999481 
	C452.053925,523.728577 455.478333,546.518250 452.687195,570.687195 
z"/>
<path fill="#ED4174" opacity="1.000000" stroke="none" 
	d="
M597.430664,591.322754 
	C598.174011,599.186035 598.867554,606.595337 599.590637,614.320923 
	C597.000244,614.320923 594.903809,614.320923 592.078186,614.320923 
	C591.562500,606.882080 591.047058,599.447571 590.531616,592.013062 
	C590.115051,592.024597 589.698486,592.036133 589.281921,592.047668 
	C588.136658,598.045227 586.780579,604.012634 585.918823,610.050598 
	C585.324646,614.213867 583.534180,615.565002 579.305664,614.006104 
	C577.839844,606.198120 576.351685,598.270874 574.863464,590.343628 
	C574.575256,590.374451 574.287048,590.405212 573.998901,590.435974 
	C573.410767,598.326233 572.822632,606.216431 572.218079,614.327026 
	C569.695801,614.327026 567.608704,614.327026 564.722534,614.327026 
	C565.919067,602.395569 567.087891,590.740417 568.309570,578.557922 
	C570.591980,578.557922 572.562683,578.703735 574.503113,578.523560 
	C577.384155,578.256042 578.651855,579.277283 579.006592,582.291931 
	C579.617676,587.485779 580.699585,592.624146 582.780457,597.765808 
	C583.953918,591.539185 585.127380,585.312561 586.345337,578.849487 
	C589.636719,578.849487 592.703613,578.849487 596.175964,578.849487 
	C596.590881,582.988342 596.985901,586.928528 597.430664,591.322754 
z"/>
<path fill="#F92E66" opacity="1.000000" stroke="none" 
	d="
M441.946899,501.629730 
	C437.774170,507.103027 433.662598,512.274658 429.345703,517.268860 
	C428.040863,518.778381 426.167084,519.796204 423.895691,520.883301 
	C416.461182,513.172363 409.684998,505.617401 402.908813,498.062439 
	C405.053955,497.092621 407.782684,496.656036 409.241699,495.059265 
	C415.111298,488.635437 420.595551,481.859009 426.194946,475.190002 
	C426.605194,474.701355 426.798676,474.030762 427.238647,473.090454 
	C432.232635,482.244080 437.080902,491.752014 441.946899,501.629730 
z"/>
<path fill="#ED4174" opacity="1.000000" stroke="none" 
	d="
M884.601257,587.438110 
	C884.757568,586.169922 884.877258,585.344849 884.947876,584.515503 
	C885.414978,579.036438 889.196899,576.572388 894.147949,578.779358 
	C895.045288,579.179260 895.721313,580.755920 895.934204,581.894958 
	C896.922241,587.183167 897.711243,592.508606 899.484558,597.909058 
	C900.435181,593.553528 901.826294,589.237671 902.223206,584.832275 
	C902.703918,579.495605 905.079468,577.525452 910.214722,578.543457 
	C911.015991,578.702271 911.850891,578.691406 913.325623,578.813049 
	C914.480530,590.490540 915.635559,602.169189 916.829590,614.242310 
	C914.207214,614.242310 911.973572,614.242310 909.390198,614.242310 
	C908.814819,607.525391 908.246643,600.892456 907.678528,594.259521 
	C907.124695,594.241699 906.570923,594.223938 906.017090,594.206116 
	C905.690857,595.300354 905.250000,596.374939 905.058350,597.492249 
	C904.270752,602.082764 903.758850,606.733215 902.693420,611.255127 
	C902.388123,612.550598 900.331970,614.537476 899.486145,614.351746 
	C898.098022,614.046814 896.285828,612.395325 895.975586,611.014404 
	C894.455811,604.248901 893.373230,597.385193 891.168091,590.592102 
	C890.581665,598.345459 889.995300,606.098816 889.381775,614.211304 
	C886.976257,614.211304 884.764709,614.211304 881.871277,614.211304 
	C882.774414,605.306641 883.658203,596.592896 884.601257,587.438110 
z"/>
<path fill="#ED4174" opacity="1.000000" stroke="none" 
	d="
M703.170166,583.690918 
	C705.162842,588.564941 707.029053,593.078491 708.895203,597.592102 
	C709.226685,597.507690 709.558167,597.423279 709.889648,597.338867 
	C709.889648,591.297424 709.889648,585.255981 709.889648,578.838928 
	C712.493164,578.838928 714.704163,578.838928 717.230103,578.838928 
	C717.230103,590.594238 717.230103,602.164001 717.230103,613.712585 
	C710.355530,615.771240 709.504333,615.380981 707.079712,609.317627 
	C705.128723,604.438660 703.122986,599.581482 700.207764,594.899902 
	C700.207764,601.229553 700.207764,607.559143 700.207764,614.240601 
	C697.517578,614.240601 695.293030,614.240601 692.723267,614.240601 
	C692.723267,602.482544 692.723267,590.917114 692.721436,579.350159 
	C699.554321,577.227051 700.728394,577.679871 703.170166,583.690918 
z"/>
<path fill="#ED4174" opacity="1.000000" stroke="none" 
	d="
M799.376343,602.960144 
	C799.376526,594.686523 799.376526,586.906799 799.376526,579.259155 
	C807.604553,577.462036 807.726074,577.531311 810.564270,584.501587 
	C812.256165,588.656799 813.973145,592.801941 815.712891,596.937195 
	C815.802124,597.149292 816.212952,597.226013 816.879578,597.582764 
	C816.879578,591.343567 816.879578,585.301636 816.879578,578.864624 
	C819.489319,578.864624 821.700134,578.864624 824.265869,578.864624 
	C824.265869,590.531860 824.265869,602.097839 824.263184,613.665222 
	C817.718811,615.812683 816.514648,615.300598 814.137878,609.415894 
	C812.159119,604.516541 810.159790,599.625488 807.351196,594.831421 
	C807.351196,601.131775 807.351196,607.432190 807.351196,614.160400 
	C804.642944,614.160400 802.430603,614.160400 799.376099,614.160400 
	C799.376099,610.626343 799.376099,607.040161 799.376343,602.960144 
z"/>
<path fill="#ED4174" opacity="1.000000" stroke="none" 
	d="
M526.254578,583.368225 
	C529.598816,578.088074 534.382385,577.156555 539.593628,578.201965 
	C544.502197,579.186707 547.812988,582.805115 548.256775,587.469788 
	C548.861328,593.823608 548.843018,600.416626 547.804016,606.693909 
	C546.857788,612.410645 542.197144,615.083191 536.363220,615.075378 
	C530.499390,615.067505 526.527161,612.343262 524.932495,606.580017 
	C522.802368,598.881409 522.467773,591.155823 526.254578,583.368225 
M531.987244,601.066528 
	C532.067078,604.266052 532.748840,607.553711 536.577515,607.465576 
	C540.398132,607.377686 540.892578,603.926514 540.988525,600.834534 
	C541.085876,597.695740 541.117615,594.543335 540.936768,591.410828 
	C540.765442,588.441833 539.722717,585.148682 536.327637,585.664307 
	C534.652039,585.918762 532.766418,589.105286 532.202026,591.282959 
	C531.477600,594.077576 531.986816,597.192017 531.987244,601.066528 
z"/>
<path fill="#ED4174" opacity="1.000000" stroke="none" 
	d="
M660.359070,608.949158 
	C659.364136,609.277039 658.536316,609.440918 658.297302,609.906860 
	C655.728516,614.914185 655.753967,614.927246 649.316895,614.097534 
	C652.577209,602.745667 655.684814,591.437500 659.258423,580.278503 
	C659.595520,579.225891 662.874634,578.672974 664.765259,578.724121 
	C665.925659,578.755432 667.762329,580.184875 668.067810,581.317566 
	C670.962830,592.052917 673.594177,602.859314 676.428894,614.152710 
	C672.718445,614.215759 669.033936,616.682556 667.583252,610.784607 
	C667.310486,609.675781 663.160461,609.520630 660.359070,608.949158 
M663.635071,589.256104 
	C662.288635,593.615356 660.942200,597.974609 659.492737,602.667236 
	C662.318054,602.667236 664.045288,602.667236 666.284485,602.667236 
	C665.427612,598.142151 664.641418,593.990173 663.635071,589.256104 
z"/>
<path fill="#ED4174" opacity="1.000000" stroke="none" 
	d="
M848.326294,587.190918 
	C848.992371,584.885681 849.067444,582.591614 850.214600,581.151245 
	C851.281677,579.811462 853.486206,578.756592 855.198975,578.743408 
	C856.634888,578.732300 859.037476,580.141174 859.377441,581.372437 
	C862.336975,592.093628 864.927917,602.916504 867.625549,613.697693 
	C860.941467,615.579651 860.471680,615.345032 858.469482,609.127014 
	C854.513184,609.337585 849.523010,606.628418 848.082764,613.708801 
	C847.927734,614.470703 843.718872,614.407959 840.489319,614.851501 
	C843.250854,605.086426 845.726929,596.330505 848.326294,587.190918 
M855.474243,591.535645 
	C855.231506,590.753662 854.988708,589.971680 854.462952,588.278442 
	C853.235352,593.546509 852.211609,597.939697 851.104553,602.690491 
	C853.403870,602.690491 855.305786,602.690491 857.645691,602.690491 
	C856.951050,598.999756 856.315063,595.620728 855.474243,591.535645 
z"/>
<path fill="#ED4174" opacity="1.000000" stroke="none" 
	d="
M618.473877,578.573853 
	C622.073608,578.616028 625.252502,578.458435 628.384277,578.771851 
	C634.644592,579.398315 637.794617,583.044922 637.910950,589.391846 
	C638.021606,595.429077 635.057007,599.081909 629.109253,600.178650 
	C627.652100,600.447266 626.173828,600.601624 624.252014,600.872375 
	C624.252014,605.186584 624.252014,609.435120 624.252014,614.140015 
	C621.436401,614.140015 619.083130,614.140015 616.108215,614.140015 
	C616.108215,602.864258 616.078552,591.619385 616.190186,580.375854 
	C616.196106,579.773560 617.390564,579.183044 618.473877,578.573853 
M623.941162,588.689331 
	C623.941162,590.607361 623.941162,592.525330 623.941162,594.507935 
	C629.062073,593.902832 631.218750,590.447693 629.050354,586.820618 
	C628.405762,585.742554 626.805115,585.236084 625.642578,584.467651 
	C625.075806,585.592102 624.508972,586.716553 623.941162,588.689331 
z"/>
<path fill="#ED4174" opacity="1.000000" stroke="none" 
	d="
M943.020935,599.693115 
	C941.854065,601.845337 941.138611,603.965454 940.129089,606.957031 
	C944.294739,606.957031 947.347107,606.957031 950.746704,606.957031 
	C950.746704,609.637329 950.746704,611.707581 950.746704,614.191040 
	C945.083862,614.191040 939.384949,614.191040 933.383667,614.191040 
	C933.383667,602.484558 933.383667,590.901733 933.383667,578.935303 
	C938.761047,578.935303 944.149048,578.935303 949.735596,578.935303 
	C949.735596,581.112915 949.735596,583.182434 949.735596,585.507324 
	C946.858459,585.684021 944.252747,585.844055 941.331238,586.023499 
	C941.331238,588.086609 941.331238,589.992676 941.331238,592.330383 
	C943.639771,592.513184 945.889099,592.691345 948.494507,592.897644 
	C948.494507,595.012939 948.494507,597.041199 948.494507,599.416992 
	C946.727112,599.502869 945.099731,599.581970 943.020935,599.693115 
z"/>
<path fill="#ED4174" opacity="1.000000" stroke="none" 
	d="
M502.852264,615.044556 
	C493.295990,614.869751 487.726471,610.643860 486.645630,601.749695 
	C486.062195,596.948730 486.537323,591.714539 487.877136,587.062317 
	C489.510437,581.391235 493.951630,578.041565 500.229279,577.922607 
	C507.323639,577.788208 508.522522,579.218628 507.378479,586.733948 
	C503.180603,585.322144 498.602142,584.020813 496.108429,589.039612 
	C493.639526,594.008423 493.493866,599.549561 496.270844,604.410950 
	C498.894104,609.003235 503.376556,607.524292 507.712799,606.121582 
	C507.635559,610.039612 510.156616,614.789551 502.852264,615.044556 
z"/>
<path fill="#6515A2" opacity="1.000000" stroke="none" 
	d="
M594.581665,694.600952 
	C593.421387,693.517273 592.224670,692.073975 591.028015,690.630676 
	C590.669434,690.122314 590.310852,689.613953 589.952332,689.105591 
	C588.418945,691.193176 587.014038,693.392334 585.321106,695.341309 
	C582.984375,698.031494 579.936035,700.228271 578.105225,703.198853 
	C576.186462,706.312134 575.325500,710.082764 574.041077,713.580322 
	C572.452881,717.904907 570.904785,722.244263 568.996582,726.707764 
	C571.102661,717.212952 573.707275,707.623901 575.961914,697.953247 
	C578.989441,684.967529 578.291260,671.970642 575.017944,657.895325 
	C584.566772,669.262878 590.229492,681.386230 594.581665,694.600952 
z"/>
<path fill="#ED4174" opacity="1.000000" stroke="none" 
	d="
M757.739502,578.763062 
	C756.782349,582.625610 755.839661,586.494995 754.173035,590.022461 
	C751.385132,595.923218 750.374573,602.006348 750.866455,608.442627 
	C751.003967,610.241699 750.887390,612.060120 750.887390,614.232666 
	C748.286682,614.232666 746.044434,614.232666 742.703308,614.232666 
	C745.529297,601.274841 739.546875,590.440979 733.860901,579.536072 
	C740.878296,577.440613 740.901367,577.456726 746.590576,588.344604 
	C749.720886,584.375427 749.100037,576.051270 757.739502,578.763062 
z"/>
<path fill="#97989B" opacity="1.000000" stroke="none" 
	d="
M637.391418,648.314209 
	C637.336853,645.410583 637.120117,642.902649 637.404297,640.452820 
	C637.565369,639.063416 638.547302,637.769226 639.159546,636.432129 
	C640.393311,637.341614 641.883179,638.049072 642.798706,639.209595 
	C644.064270,640.813843 644.897217,642.759338 646.968689,644.269348 
	C646.968689,641.770996 646.968689,639.272583 646.968689,636.774231 
	C647.547302,636.722473 648.125916,636.670776 648.704529,636.619080 
	C651.028259,640.593689 649.115540,645.163757 649.766724,649.447327 
	C643.675171,651.483032 644.341003,645.084961 640.809326,643.230652 
	C640.682983,644.942688 640.665344,646.458862 640.440125,647.943420 
	C640.071838,650.370605 639.041504,650.755371 637.391418,648.314209 
z"/>
<path fill="#97989B" opacity="1.000000" stroke="none" 
	d="
M561.225464,642.886597 
	C561.148804,645.661804 563.595215,649.078857 559.161804,650.124451 
	C555.546448,650.977173 552.369019,650.207947 550.833984,646.560364 
	C549.333313,642.994385 549.932922,639.520264 553.406616,637.362671 
	C555.911621,635.806824 558.753052,635.092407 561.719727,638.562256 
	C557.647156,639.153503 552.928955,638.643066 553.886353,644.254822 
	C554.102295,645.520386 555.821960,646.529419 556.849365,647.656494 
	C557.262878,647.261658 557.676453,646.866760 558.089966,646.471924 
	C557.419678,645.497559 556.749390,644.523193 555.408203,642.573669 
	C557.753906,642.573669 559.370544,642.573669 561.225464,642.886597 
z"/>
<path fill="#97989B" opacity="1.000000" stroke="none" 
	d="
M935.093018,649.704163 
	C934.597290,646.850647 934.194092,644.191406 934.385132,641.575500 
	C934.512085,639.836060 935.257141,636.866577 936.129456,636.710999 
	C938.215942,636.338623 940.880005,636.790833 942.627869,637.944702 
	C943.508057,638.525879 942.778687,641.375122 942.997925,643.171753 
	C943.253174,645.263794 943.749878,647.326294 944.408081,650.812012 
	C942.013672,648.774414 940.225464,647.252747 938.663147,645.923218 
	C937.684631,647.134949 936.561401,648.525940 935.093018,649.704163 
z"/>
<path fill="#97989B" opacity="1.000000" stroke="none" 
	d="
M875.119751,639.186584 
	C877.354187,642.453003 879.061584,642.783447 880.202332,638.756653 
	C880.444275,637.902527 881.406799,637.252502 882.037231,636.508423 
	C882.535828,637.261658 883.426514,637.995850 883.464417,638.771667 
	C883.617737,641.912903 883.580139,645.070251 883.433289,648.213257 
	C883.405518,648.808960 882.657776,649.565369 882.052979,649.863220 
	C881.716370,650.028931 880.656067,649.528992 880.494995,649.109192 
	C879.765137,647.207214 880.702515,643.604187 876.979004,644.827454 
	C875.630676,645.270508 875.038208,648.014404 873.893311,650.083435 
	C873.347046,649.570679 872.268982,649.038879 872.235046,648.447266 
	C872.045349,645.141724 872.017944,641.817810 872.158997,638.509766 
	C872.188049,637.828979 873.167908,637.188721 873.709534,636.529785 
	C874.171509,637.275330 874.633484,638.020874 875.119751,639.186584 
z"/>
<path fill="#97989B" opacity="1.000000" stroke="none" 
	d="
M730.213379,650.391602 
	C726.141724,650.084045 723.593811,648.052979 723.858765,644.424805 
	C724.040222,641.939697 725.281982,638.828064 727.132446,637.379517 
	C728.770691,636.097046 731.904297,636.724854 734.605957,637.437500 
	C731.038147,639.336853 725.499573,638.721741 727.250732,645.017395 
	C727.561829,646.135803 729.672974,646.753479 730.952881,647.602417 
	C731.532654,646.901917 732.112427,646.201416 732.692200,645.500977 
	C731.252747,645.126526 729.813232,644.752136 728.373779,644.377747 
	C728.718872,643.774414 729.064026,643.171143 729.409119,642.567871 
	C731.042480,642.467712 732.675842,642.367554 734.683411,642.244385 
	C734.763916,646.106750 736.748901,650.255066 730.213379,650.391602 
z"/>
<path fill="#97989B" opacity="1.000000" stroke="none" 
	d="
M520.225098,642.177185 
	C520.673035,640.870361 520.793213,639.771179 521.372192,639.030579 
	C522.189453,637.985107 523.243774,636.754456 524.398743,636.492065 
	C525.022034,636.350464 526.426819,637.911987 526.853088,638.959778 
	C528.220398,642.321045 529.295959,645.800903 531.005554,650.742249 
	C528.069031,649.061523 526.266174,647.222168 524.462708,647.221436 
	C522.606995,647.220703 520.750671,649.013184 517.684387,650.678040 
	C518.694397,647.280334 519.398254,644.912598 520.225098,642.177185 
z"/>
<path fill="#97989B" opacity="1.000000" stroke="none" 
	d="
M758.480835,637.432739 
	C764.632568,635.294067 768.741028,637.026855 768.754333,641.932129 
	C768.761047,644.409912 767.645508,647.607300 765.876892,649.141235 
	C764.519409,650.318665 760.547058,650.343262 759.178040,649.182129 
	C757.396362,647.670959 756.658142,644.542847 756.230591,641.983643 
	C756.014221,640.688110 757.467468,639.113586 758.480835,637.432739 
M760.952454,639.232483 
	C760.333130,640.520813 758.962646,642.029846 759.261780,643.048401 
	C759.774963,644.795837 761.331116,646.237000 762.449463,647.806702 
	C763.600769,646.269897 765.442322,644.855164 765.740723,643.167542 
	C766.182129,640.671570 764.885864,638.620056 760.952454,639.232483 
z"/>
<path fill="#97989B" opacity="1.000000" stroke="none" 
	d="
M798.111633,648.464478 
	C795.860168,649.354492 793.503845,649.905212 790.575195,650.589722 
	C790.575195,645.555969 790.575195,641.363953 790.575195,636.373230 
	C793.097717,636.500122 795.681091,636.630066 798.264404,636.760071 
	C798.266968,637.296021 798.269470,637.831909 798.271973,638.367859 
	C796.841614,638.788940 795.411255,639.210022 793.053162,639.904175 
	C795.128357,641.125000 796.495239,641.929138 798.449341,643.078735 
	C796.581299,644.109558 795.196838,644.873535 793.086487,646.038025 
	C795.229309,646.947021 796.618042,647.536133 798.111633,648.464478 
z"/>
<path fill="#97989B" opacity="1.000000" stroke="none" 
	d="
M671.284302,641.280884 
	C671.785950,639.399902 671.989807,636.994690 672.848755,636.732117 
	C674.852844,636.119263 677.171936,636.536560 679.363403,636.536560 
	C679.382568,637.141479 679.401733,637.746338 679.420898,638.351257 
	C677.887390,638.837097 676.353821,639.322937 673.478271,640.233948 
	C676.098572,641.436768 677.511108,642.085205 679.589783,643.039429 
	C677.643311,644.113647 676.271973,644.870544 674.168396,646.031433 
	C676.436951,647.004150 677.932068,647.645203 679.427124,648.286255 
	C679.408447,648.721802 679.389832,649.157349 679.371155,649.592834 
	C676.888367,649.759827 674.405640,649.926819 671.284241,650.136780 
	C671.284241,646.941040 671.284241,644.335571 671.284302,641.280884 
z"/>
<path fill="#97989B" opacity="1.000000" stroke="none" 
	d="
M912.198730,636.648315 
	C911.528748,637.984192 910.494995,639.146729 909.221375,640.578979 
	C910.191223,641.157593 911.560242,641.974304 913.542480,643.156860 
	C911.585693,644.136047 910.245972,644.806396 908.111694,645.874451 
	C910.147644,646.899963 911.568909,647.615845 912.990234,648.331726 
	C912.988037,648.718201 912.985840,649.104614 912.983643,649.491089 
	C910.633911,649.708435 908.284180,649.925842 905.508057,650.182678 
	C905.508057,645.492493 905.508057,641.276367 905.508057,636.474915 
	C907.646790,636.474915 909.740906,636.474915 912.198730,636.648315 
z"/>
<path fill="#97989B" opacity="1.000000" stroke="none" 
	d="
M969.106689,645.941162 
	C970.596985,647.062439 972.099060,647.780823 973.601135,648.499207 
	C973.561890,648.887756 973.522705,649.276245 973.483459,649.664795 
	C971.031433,649.808533 968.579407,649.952209 965.391479,650.138977 
	C965.391479,647.064087 965.383118,644.458069 965.393127,641.852173 
	C965.416626,635.768188 967.262451,634.774048 974.191528,637.902039 
	C972.030823,638.705383 970.447632,639.294006 967.663879,640.328979 
	C970.186340,641.476990 971.610291,642.125122 973.700073,643.076233 
	C971.762756,644.117310 970.440552,644.827820 969.106689,645.941162 
z"/>
<path fill="#97989B" opacity="1.000000" stroke="none" 
	d="
M820.118164,649.951172 
	C819.833557,648.934998 819.717224,647.291687 819.956665,647.238098 
	C821.160461,646.968689 822.457153,647.114502 824.236938,647.114502 
	C822.813599,643.481445 815.368774,642.298462 820.555603,637.160278 
	C822.411560,635.321777 824.814453,636.000244 827.229248,638.876648 
	C825.390747,639.095825 823.816162,639.283508 822.805054,639.403992 
	C824.364197,642.241150 825.854065,644.952209 827.343933,647.663330 
	C825.046143,648.461243 822.748352,649.259155 820.118164,649.951172 
z"/>
<path fill="#97989B" opacity="1.000000" stroke="none" 
	d="
M584.817871,636.498169 
	C585.642456,637.668335 586.497131,638.835266 586.446167,639.961243 
	C586.262085,644.030029 585.975952,647.963806 592.304504,648.013489 
	C592.104553,648.544861 591.904541,649.076294 591.704529,649.607666 
	C589.082886,649.774780 586.461243,649.941895 582.575989,650.189514 
	C583.257568,645.154663 583.845032,640.815430 584.817871,636.498169 
z"/>
<path fill="#97989B" opacity="1.000000" stroke="none" 
	d="
M494.754669,636.337524 
	C496.371399,636.540955 497.568176,636.744080 498.764984,636.947266 
	C491.673767,639.454468 497.035461,646.530823 493.757141,650.543884 
	C489.707916,646.649109 495.609467,639.351440 488.288818,636.773071 
	C490.304108,636.627808 492.319427,636.482483 494.754669,636.337524 
z"/>
<path fill="#97989B" opacity="1.000000" stroke="none" 
	d="
M615.774414,642.125488 
	C615.763611,644.381165 615.910645,646.209412 615.665100,647.983398 
	C615.566589,648.695068 614.604736,649.287170 614.035767,649.933655 
	C613.483582,649.268066 612.503418,648.632263 612.454651,647.931641 
	C612.261047,645.152344 612.219055,642.342773 612.419067,639.565857 
	C612.495911,638.497681 613.369202,637.486816 613.879578,636.449829 
	C614.511719,637.535034 615.239746,638.578796 615.734619,639.723267 
	C615.973938,640.276611 615.775208,641.019348 615.774414,642.125488 
z"/>
<path fill="#C21197" opacity="1.000000" stroke="none" 
	d="
M418.845581,669.558228 
	C418.959747,665.493286 419.178528,661.021545 419.679810,656.287231 
	C419.624939,660.400269 419.287598,664.775818 418.845581,669.558228 
z"/>
<path fill="#FB3A57" opacity="1.000000" stroke="none" 
	d="
M375.017456,424.433228 
	C371.301941,423.300018 367.393921,421.882904 363.305115,420.174500 
	C367.024506,421.305267 370.924774,422.727295 375.017456,424.433228 
z"/>
<path fill="#FC6033" opacity="1.000000" stroke="none" 
	d="
M218.110672,531.399902 
	C219.693039,534.492615 221.279282,537.954895 222.840164,541.800964 
	C221.248062,538.713013 219.681305,535.241211 218.110672,531.399902 
z"/>
<path fill="#FB3A57" opacity="1.000000" stroke="none" 
	d="
M386.874146,430.635498 
	C385.151398,430.061890 383.248291,429.204987 381.306213,427.979126 
	C383.076080,428.524231 384.884918,429.438202 386.874146,430.635498 
z"/>
<path fill="#4E30AF" opacity="1.000000" stroke="none" 
	d="
M597.827637,759.546997 
	C597.776733,758.015991 597.846191,756.131104 598.233398,754.145020 
	C598.350037,755.760254 598.149048,757.476624 597.827637,759.546997 
z"/>
<path fill="#6515A2" opacity="1.000000" stroke="none" 
	d="
M568.478760,726.995117 
	C568.272705,728.376465 567.800110,729.978333 566.985840,731.701294 
	C567.166931,730.286804 567.689575,728.751282 568.478760,726.995117 
z"/>
<path fill="#F92E66" opacity="1.000000" stroke="none" 
	d="
M223.143616,767.454285 
	C223.308151,768.471375 223.356323,769.864380 223.191376,771.112061 
	C222.994583,769.921204 223.010941,768.875671 223.143616,767.454285 
z"/>
<path fill="#F92E66" opacity="1.000000" stroke="none" 
	d="
M427.319641,472.434814 
	C426.592987,471.713745 425.838654,470.664612 425.075470,469.268921 
	C425.808411,469.983856 426.550171,471.045288 427.319641,472.434814 
z"/>
<path fill="#C21197" opacity="1.000000" stroke="none" 
	d="
M418.725403,677.683655 
	C418.461578,677.378418 418.288361,676.738037 418.373291,676.041260 
	C418.692932,676.439453 418.754456,676.893982 418.725403,677.683655 
z"/>
<path fill="#FD7232" opacity="1.000000" stroke="none" 
	d="
M209.057159,502.180847 
	C209.176636,501.532654 209.300735,501.238922 209.424835,500.945160 
	C209.589630,501.616486 209.754425,502.287842 209.901367,503.285889 
	C209.609573,503.253479 209.335678,502.894379 209.057159,502.180847 
z"/>
<path fill="#6515A2" opacity="1.000000" stroke="none" 
	d="
M566.470154,731.879700 
	C566.523315,732.410095 566.363770,733.078674 565.943970,733.845154 
	C565.875000,733.301331 566.066223,732.659607 566.470154,731.879700 
z"/>
<path fill="#FB3A57" opacity="1.000000" stroke="none" 
	d="
M379.824707,426.670959 
	C379.154663,426.703064 378.286804,426.485168 377.339508,425.920715 
	C378.049011,425.856445 378.837982,426.138733 379.824707,426.670959 
z"/>
<path fill="#FB3A57" opacity="1.000000" stroke="none" 
	d="
M377.081970,425.373047 
	C376.640442,425.511780 376.023376,425.410461 375.308441,424.985840 
	C375.775848,424.819366 376.341125,424.976135 377.081970,425.373047 
z"/>
<path fill="#FB3A57" opacity="1.000000" stroke="none" 
	d="
M249.636673,586.626587 
	C250.018158,586.700867 250.461136,587.054932 250.916336,587.730042 
	C250.518433,587.669556 250.108292,587.288025 249.636673,586.626587 
z"/>
<path fill="#FB3A57" opacity="1.000000" stroke="none" 
	d="
M248.736328,585.532654 
	C249.001770,585.438721 249.326569,585.605286 249.649628,586.066772 
	C249.363815,586.172119 249.079742,585.982605 248.736328,585.532654 
z"/>
<path fill="#FB3A57" opacity="1.000000" stroke="none" 
	d="
M381.185364,427.468567 
	C380.974731,427.609283 380.647491,427.513000 380.198303,427.181854 
	C380.407196,427.041870 380.737976,427.136719 381.185364,427.468567 
z"/>
<path fill="#FB3A57" opacity="1.000000" stroke="none" 
	d="
M247.774994,584.488159 
	C248.022919,584.394714 248.346451,584.563782 248.706177,585.020264 
	C248.445114,585.122009 248.147858,584.936401 247.774994,584.488159 
z"/>
<path fill="#FB3A57" opacity="1.000000" stroke="none" 
	d="
M251.961227,589.337769 
	C252.159576,589.266113 252.446228,589.440613 252.830872,589.854492 
	C252.635773,589.923889 252.342651,589.753906 251.961227,589.337769 
z"/>
<path fill="#FB3A57" opacity="1.000000" stroke="none" 
	d="
M246.862732,583.405884 
	C247.100632,583.336060 247.399796,583.533386 247.740417,584.009155 
	C247.495911,584.082642 247.209961,583.877808 246.862732,583.405884 
z"/>
<path fill="#FB3A57" opacity="1.000000" stroke="none" 
	d="
M245.936447,582.364502 
	C246.147339,582.298767 246.433578,582.487366 246.795776,582.931274 
	C246.585098,582.997314 246.298431,582.808105 245.936447,582.364502 
z"/>
<path fill="#6515A2" opacity="1.000000" stroke="none" 
	d="
M434.230957,812.839783 
	C434.328461,812.696716 434.605316,812.743835 434.899353,812.976257 
	C434.747772,813.117676 434.579071,813.073853 434.230957,812.839783 
z"/>
<path fill="#FB3A57" opacity="1.000000" stroke="none" 
	d="
M360.693726,419.025421 
	C360.866364,419.130646 360.567505,419.449768 360.567505,419.449768 
	C360.567505,419.449768 360.199524,419.281036 360.160156,419.129242 
	C360.120789,418.977448 360.521088,418.920197 360.693726,419.025421 
z"/>
<path fill="#FFFDFE" opacity="1.000000" stroke="none" 
	d="
M402.581848,497.962646 
	C409.684998,505.617401 416.461182,513.172363 423.513306,520.908569 
	C434.639526,539.712341 440.494263,559.949219 443.362976,581.594849 
	C443.872772,586.505798 444.234833,591.020813 444.676086,596.523010 
	C441.951050,594.570374 440.026459,593.191345 437.746124,591.745667 
	C437.390411,591.679077 437.343048,591.699280 437.229767,591.415039 
	C436.414276,590.741089 435.712067,590.351318 435.005676,589.982605 
	C435.001495,590.003662 435.036926,589.979370 434.872864,589.721191 
	C433.470703,588.790466 432.232605,588.117859 430.716675,587.210815 
	C406.198914,574.231018 380.562897,568.919189 353.260284,572.480591 
	C352.325500,572.507690 351.390717,572.534729 349.946167,572.630737 
	C349.237823,572.678467 349.109253,572.763611 349.050720,572.955078 
	C346.579254,573.118774 344.107758,573.282532 341.299988,573.655151 
	C319.699097,575.922913 300.037537,582.876343 280.967529,593.887573 
	C278.179535,587.045227 275.503998,580.478943 272.630310,573.583435 
	C272.432190,573.254211 272.394684,573.134705 272.313416,572.690491 
	C270.850555,568.130493 269.468964,564.014771 268.087402,559.898987 
	C265.621490,546.284424 263.171478,532.666992 260.676788,519.057739 
	C260.149200,516.179626 259.457977,513.331482 258.639984,510.160828 
	C258.437805,509.852112 258.373291,509.868073 258.363129,509.482452 
	C257.273438,506.025085 256.193909,502.953369 255.114395,499.881622 
	C255.114395,499.881622 255.093719,499.968414 255.167175,499.600403 
	C254.834915,498.152924 254.429199,497.073395 254.023499,495.993896 
	C253.296295,493.340912 252.569092,490.687958 251.501038,486.791504 
	C261.140198,486.791504 270.151642,486.791504 279.557983,486.695282 
	C280.314026,486.580902 280.675140,486.562744 281.439911,486.551880 
	C282.374512,486.418488 282.905487,486.277771 283.436462,486.137085 
	C284.089203,486.166748 284.741974,486.196381 286.103729,486.175110 
	C288.384766,485.797546 289.956787,485.470978 291.528778,485.144348 
	C298.098785,484.311066 304.667389,483.466522 311.239258,482.648254 
	C316.015503,482.053589 320.796021,481.493561 325.902008,480.658142 
	C347.014496,478.864319 367.486481,479.861664 386.742004,488.884033 
	C392.131989,491.409576 397.095673,494.844879 402.581848,497.962646 
z"/>
<path fill="#FFFDFE" opacity="1.000000" stroke="none" 
	d="
M340.441132,754.018066 
	C323.402924,750.948425 306.703644,749.285217 289.390930,750.864624 
	C287.037323,750.972900 285.086182,750.972900 282.574341,750.972900 
	C289.217224,730.521057 293.876007,710.259583 295.519043,688.670715 
	C295.829163,686.415771 296.004456,684.857056 296.179749,683.298340 
	C296.386169,682.734314 296.592560,682.170227 296.750488,681.301514 
	C300.057831,669.872742 302.680023,658.458679 306.935883,647.690369 
	C313.896881,630.077332 325.537903,615.903870 342.192078,605.407715 
	C342.866455,604.817749 343.088623,604.555237 343.310791,604.292786 
	C343.310791,604.292786 343.183289,604.336365 343.530396,604.348083 
	C344.318054,603.992798 344.758636,603.625793 345.199219,603.258789 
	C345.199219,603.258789 344.988831,603.100891 345.414734,603.170532 
	C346.950562,602.563232 348.060486,601.886230 349.170410,601.209229 
	C349.170380,601.209167 349.011322,601.116699 349.421265,601.169556 
	C351.242676,600.510864 352.654114,599.799194 354.065552,599.087524 
	C354.065552,599.087524 353.990967,599.049316 354.410858,599.065430 
	C369.467438,593.449585 384.693329,591.143494 400.276581,591.894165 
	C410.879669,592.405090 421.439941,593.805298 432.019348,594.807800 
	C434.905396,595.531677 437.791443,596.255615 441.485077,597.182129 
	C405.389740,624.498718 391.898224,662.429688 388.059692,705.476807 
	C386.274597,721.630127 388.031006,737.061523 392.015930,752.933960 
	C390.234161,753.300415 388.543243,753.715027 386.829926,753.990112 
	C373.506409,756.128784 360.179657,756.352783 346.831451,754.129456 
	C344.889679,753.805908 342.867584,753.964783 340.441132,754.018066 
z"/>
<path fill="#F82177" opacity="1.000000" stroke="none" 
	d="
M432.285126,594.574280 
	C421.439941,593.805298 410.879669,592.405090 400.276581,591.894165 
	C384.693329,591.143494 369.467438,593.449585 354.446533,599.092163 
	C363.335815,594.486206 367.068878,584.748474 373.750702,577.734131 
	C374.702667,576.734802 375.177032,575.280518 376.539337,572.844238 
	C368.310913,572.844238 361.122253,572.844238 353.596954,572.662415 
	C380.562897,568.919189 406.198914,574.231018 430.803284,587.511597 
	C432.457489,588.691101 433.747223,589.335266 435.036926,589.979370 
	C435.036926,589.979370 435.001495,590.003662 435.129486,590.274170 
	C435.952667,590.929504 436.647858,591.314392 437.343048,591.699280 
	C437.343048,591.699280 437.390411,591.679077 437.410889,591.662354 
	C437.584839,595.767883 433.975830,593.076782 432.285126,594.574280 
z"/>
<path fill="#F82177" opacity="1.000000" stroke="none" 
	d="
M353.699707,599.068848 
	C352.654114,599.799194 351.242676,600.510864 349.484161,601.236694 
	C350.535980,600.517334 351.934906,599.783691 353.699707,599.068848 
z"/>
<path fill="#F82177" opacity="1.000000" stroke="none" 
	d="
M348.818298,601.172119 
	C348.060486,601.886230 346.950562,602.563232 345.507507,603.263794 
	C346.271637,602.569946 347.368927,601.852539 348.818298,601.172119 
z"/>
<path fill="#F82177" opacity="1.000000" stroke="none" 
	d="
M344.863556,603.207092 
	C344.758636,603.625793 344.318054,603.992798 343.582764,604.390442 
	C343.701355,603.999207 344.114624,603.577271 344.863556,603.207092 
z"/>
<path fill="#F82177" opacity="1.000000" stroke="none" 
	d="
M349.139038,572.949951 
	C349.109253,572.763611 349.237823,572.678467 349.506409,572.801819 
	C349.576385,572.903992 349.227356,572.944824 349.139038,572.949951 
z"/>
<path fill="#F82177" opacity="1.000000" stroke="none" 
	d="
M343.031311,604.307617 
	C343.088623,604.555237 342.866455,604.817749 342.378052,605.130981 
	C342.325165,604.895264 342.538513,604.608826 343.031311,604.307617 
z"/>
<path fill="#F92E66" opacity="1.000000" stroke="none" 
	d="
M295.937714,683.097717 
	C296.004456,684.857056 295.829163,686.415771 295.373352,688.265198 
	C295.293793,686.669617 295.494751,684.783386 295.937714,683.097717 
z"/>
<path fill="#FD7232" opacity="1.000000" stroke="none" 
	d="
M291.098145,485.108154 
	C289.956787,485.470978 288.384766,485.797546 286.412720,486.054260 
	C287.564270,485.680206 289.115875,485.376068 291.098145,485.108154 
z"/>
<path fill="#FD7232" opacity="1.000000" stroke="none" 
	d="
M282.932037,486.118225 
	C282.905487,486.277771 282.374512,486.418488 281.631470,486.355225 
	C281.755463,486.133942 282.091522,486.116638 282.932037,486.118225 
z"/>
<path fill="#FC6033" opacity="1.000000" stroke="none" 
	d="
M255.089462,500.288605 
	C256.193909,502.953369 257.273438,506.025085 258.332214,509.494629 
	C257.229126,506.826843 256.146820,503.761200 255.089462,500.288605 
z"/>
<path fill="#FC6033" opacity="1.000000" stroke="none" 
	d="
M254.024551,496.365936 
	C254.429199,497.073395 254.834915,498.152924 255.210510,499.589874 
	C254.795471,498.877533 254.410538,497.807770 254.024551,496.365936 
z"/>
<path fill="#F82177" opacity="1.000000" stroke="none" 
	d="
M439.545532,594.470703 
	C439.575439,594.522217 439.515656,594.419128 439.545532,594.470703 
z"/>
<path fill="#FB3A57" opacity="1.000000" stroke="none" 
	d="
M268.068054,560.310059 
	C269.468964,564.014771 270.850555,568.130493 272.263367,572.652832 
	C270.879303,568.946655 269.463989,564.833862 268.068054,560.310059 
z"/>
<path fill="#FFFDFE" opacity="1.000000" stroke="none" 
	d="
M531.975891,600.617554 
	C531.986816,597.192017 531.477600,594.077576 532.202026,591.282959 
	C532.766418,589.105286 534.652039,585.918762 536.327637,585.664307 
	C539.722717,585.148682 540.765442,588.441833 540.936768,591.410828 
	C541.117615,594.543335 541.085876,597.695740 540.988525,600.834534 
	C540.892578,603.926514 540.398132,607.377686 536.577515,607.465576 
	C532.748840,607.553711 532.067078,604.266052 531.975891,600.617554 
z"/>
<path fill="#F2F2F2" opacity="1.000000" stroke="none" 
	d="
M663.745117,589.547180 
	C664.641418,593.990173 665.427612,598.142151 666.284485,602.667236 
	C664.045288,602.667236 662.318054,602.667236 659.492737,602.667236 
	C660.942200,597.974609 662.288635,593.615356 663.745117,589.547180 
z"/>
<path fill="#F2F2F2" opacity="1.000000" stroke="none" 
	d="
M855.576660,591.888672 
	C856.315063,595.620728 856.951050,598.999756 857.645691,602.690491 
	C855.305786,602.690491 853.403870,602.690491 851.104553,602.690491 
	C852.211609,597.939697 853.235352,593.546509 854.462952,588.278442 
	C854.988708,589.971680 855.231506,590.753662 855.576660,591.888672 
z"/>
<path fill="#F2F2F2" opacity="1.000000" stroke="none" 
	d="
M623.941650,588.265137 
	C624.508972,586.716553 625.075806,585.592102 625.642578,584.467651 
	C626.805115,585.236084 628.405762,585.742554 629.050354,586.820618 
	C631.218750,590.447693 629.062073,593.902832 623.941162,594.507935 
	C623.941162,592.525330 623.941162,590.607361 623.941650,588.265137 
z"/>
<path fill="#F2F2F2" opacity="1.000000" stroke="none" 
	d="
M761.332275,639.107788 
	C764.885864,638.620056 766.182129,640.671570 765.740723,643.167542 
	C765.442322,644.855164 763.600769,646.269897 762.449463,647.806702 
	C761.331116,646.237000 759.774963,644.795837 759.261780,643.048401 
	C758.962646,642.029846 760.333130,640.520813 761.332275,639.107788 
z"/>
<path fill="#E50F94" opacity="1.000000" stroke="none" 
	d="
M434.872864,589.721191 
	C433.747223,589.335266 432.457489,588.691101 431.081177,587.746155 
	C432.232605,588.117859 433.470703,588.790466 434.872864,589.721191 
z"/>
<path fill="#E50F94" opacity="1.000000" stroke="none" 
	d="
M437.229767,591.415039 
	C436.647858,591.314392 435.952667,590.929504 435.133667,590.253113 
	C435.712067,590.351318 436.414276,590.741089 437.229767,591.415039 
z"/>
</svg>